<?xml version="1.0" encoding="UTF-8" standalone="no"?>
<!-- Created with Inkscape (http://www.inkscape.org/) -->

<svg
   version="1.1"
   id="svg2"
   width="792.74402"
   height="374.5"
   viewBox="0 0 792.74402 374.5"
   xmlns="http://www.w3.org/2000/svg"
   xmlns:svg="http://www.w3.org/2000/svg">
  <defs
     id="defs6">
    <clipPath
       clipPathUnits="userSpaceOnUse"
       id="clipPath46">
      <path
         d="M 0,0 H 1133.88 V 540 H 0 Z"
         id="path44" />
    </clipPath>
    <clipPath
       clipPathUnits="userSpaceOnUse"
       id="clipPath120">
      <path
         d="m 253.56,335.76 h 31.32 v 31.919 h -31.32 z"
         id="path118" />
    </clipPath>
    <clipPath
       clipPathUnits="userSpaceOnUse"
       id="clipPath164">
      <path
         d="M 0,0 H 1133.88 V 540 H 0 Z"
         id="path162" />
    </clipPath>
    <clipPath
       clipPathUnits="userSpaceOnUse"
       id="clipPath194">
      <path
         d="M 0,0 H 1133.88 V 540 H 0 Z"
         id="path192" />
    </clipPath>
    <clipPath
       clipPathUnits="userSpaceOnUse"
       id="clipPath210">
      <path
         d="M 0,0 H 1133.88 V 540 H 0 Z"
         id="path208" />
    </clipPath>
    <clipPath
       clipPathUnits="userSpaceOnUse"
       id="clipPath226">
      <path
         d="M 0,0 H 1133.88 V 540 H 0 Z"
         id="path224" />
    </clipPath>
  </defs>
  <g
     id="g8"
     transform="matrix(1.3333333,0,0,-1.3333333,-238.66667,590.30667)">
    <path
       d="M 0,0 H 1133.88 V 540 H 0 Z"
       style="fill:#ffffff;fill-opacity:1;fill-rule:nonzero;stroke:none"
       id="path10" />
    <path
       d="M 219.96,211.32 H 728.04 V 166.08 H 219.96 Z"
       style="fill:none;stroke:#000000;stroke-width:1;stroke-linecap:butt;stroke-linejoin:miter;stroke-miterlimit:8;stroke-dasharray:4, 3;stroke-dashoffset:0;stroke-opacity:1"
       id="path12" />
    <text
       xml:space="preserve"
       transform="matrix(1,0,0,-1,441.7612,174.3795)"
       style="font-variant:normal;font-weight:normal;font-stretch:normal;font-size:12px;font-family:'Times New Roman';-inkscape-font-specification:TimesNewRomanPSMT;writing-mode:lr-tb;fill:#000000;fill-opacity:1;fill-rule:nonzero;stroke:none"
       id="text16"><tspan
         x="0 6.7199998 12.36 18.360001 23.639999 29.639999 33.599998 39.599998 45.599998 51.599998 57.599998 62.279999 65.639999 73.68 78.959999 84.959999 90.959999 96.239998 100.92 104.28 108.96 111.96 118.56 121.92 127.92"
         y="0"
         id="tspan14">Synchronous Requests Flow</tspan></text>
    <g
       id="g18"
       transform="translate(403.68,177)">
      <path
         d="M 0,0 H 23.346"
         style="fill:none;stroke:#c55a11;stroke-width:1;stroke-linecap:butt;stroke-linejoin:miter;stroke-miterlimit:8;stroke-dasharray:none;stroke-opacity:1"
         id="path20" />
    </g>
    <g
       id="g22"
       transform="translate(426.0266,180.0002)">
      <path
         d="M 0,0 6,-3 0,-6 Z"
         style="fill:#c55a11;fill-opacity:1;fill-rule:evenodd;stroke:none"
         id="path24" />
    </g>
    <g
       id="g26"
       transform="translate(231.36,176.88)">
      <path
         d="M 0,0 H 23.346"
         style="fill:none;stroke:#2f5597;stroke-width:1;stroke-linecap:butt;stroke-linejoin:miter;stroke-miterlimit:8;stroke-dasharray:4, 3;stroke-dashoffset:0;stroke-opacity:1"
         id="path28" />
    </g>
    <g
       id="g30"
       transform="translate(253.7066,179.8802)">
      <path
         d="M 0,0 6,-3 0,-6 Z"
         style="fill:#2f5597;fill-opacity:1;fill-rule:evenodd;stroke:none"
         id="path32" />
    </g>
    <text
       xml:space="preserve"
       transform="matrix(1,0,0,-1,270.3516,172.6562)"
       style="font-variant:normal;font-weight:normal;font-stretch:normal;font-size:12px;font-family:'Times New Roman';-inkscape-font-specification:TimesNewRomanPSMT;writing-mode:lr-tb;fill:#000000;fill-opacity:1;fill-rule:nonzero;stroke:none"
       id="text38"><tspan
         x="0 8.6400003 13.32 18.959999 24.959999 30.24 36.240002 40.200001 46.200001 52.200001 58.200001 64.199997 68.879997 72.239998 80.879997 86.160004 89.519997 94.800003 98.040001 104.64 108 114"
         y="0"
         id="tspan34">Asynchronous Data Flow</tspan><tspan
         x="367.548 376.18799 382.18799 388.18799 393.46799 398.14801 401.14801 406.42801 412.42801 415.78799 419.14801 424.42801 429.70801 433.06799 436.42801 442.42801"
         y="0.228"
         id="tspan36">Nodes collection</tspan></text>
    <g
       id="g40">
      <g
         id="g42"
         clip-path="url(#clipPath46)">
        <g
           id="g48"
           transform="translate(228.24,203.08)">
          <path
             d="m 0,0 c 0,1.303 1.057,2.36 2.36,2.36 h 23.72 c 1.303,0 2.36,-1.057 2.36,-2.36 v -9.44 c 0,-1.303 -1.057,-2.36 -2.36,-2.36 H 2.36 C 1.057,-11.8 0,-10.743 0,-9.44 Z"
             style="fill:#ffd966;fill-opacity:1;fill-rule:evenodd;stroke:#000000;stroke-width:1;stroke-linecap:butt;stroke-linejoin:miter;stroke-miterlimit:8;stroke-dasharray:none;stroke-opacity:1"
             id="path50" />
        </g>
      </g>
    </g>
    <path
       d="m 597.84,183.84 h 28.32 v -14.16 h -28.32 z"
       style="fill:#ffffff;fill-opacity:0.501968;fill-rule:evenodd;stroke:none"
       id="path52" />
    <path
       d="m 597.84,183.84 h 28.32 v -14.16 h -28.32 z"
       style="fill:none;stroke:#000000;stroke-width:1;stroke-linecap:butt;stroke-linejoin:miter;stroke-miterlimit:8;stroke-dasharray:1, 1;stroke-dashoffset:0;stroke-opacity:1"
       id="path54" />
    <text
       xml:space="preserve"
       transform="matrix(1,0,0,-1,262.6463,194.8929)"
       style="font-variant:normal;font-weight:normal;font-stretch:normal;font-size:12px;font-family:'Times New Roman';-inkscape-font-specification:TimesNewRomanPSMT;writing-mode:lr-tb;fill:#000000;fill-opacity:1;fill-rule:nonzero;stroke:none"
       id="text58"><tspan
         x="0 10.68 15.96 19.92 28.559999 34.560001 38.52 47.639999 52.919998 58.919998 68.279999 74.279999 80.279999 86.279999 91.559998 97.559998"
         y="0"
         id="tspan56">MerKurycomponent</tspan></text>
    <path
       d="m 618.6,205.8 h 28.32 V 191.64 H 618.6 Z"
       style="fill:#f2f2f2;fill-opacity:1;fill-rule:evenodd;stroke:#000000;stroke-width:1;stroke-linecap:butt;stroke-linejoin:miter;stroke-miterlimit:8;stroke-dasharray:none;stroke-opacity:1"
       id="path60" />
    <text
       xml:space="preserve"
       transform="matrix(1,0,0,-1,652.9579,195.0827)"
       style="font-variant:normal;font-weight:normal;font-stretch:normal;font-size:12px;font-family:'Times New Roman';-inkscape-font-specification:TimesNewRomanPSMT;writing-mode:lr-tb;fill:#000000;fill-opacity:1;fill-rule:nonzero;stroke:none"
       id="text64"><tspan
         x="0 6.7199998 12.72 18.360001 23.040001 26.4 31.68 36.959999 40.32 43.799999 49.799999 55.799999 61.799999"
         y="0"
         id="tspan62">Physical node</tspan></text>
    <path
       d="m 369.6,205.8 h 28.32 V 191.64 H 369.6 Z"
       style="fill:#fff2cc;fill-opacity:0.501968;fill-rule:evenodd;stroke:none"
       id="path66" />
    <path
       d="m 369.6,205.8 h 28.32 V 191.64 H 369.6 Z"
       style="fill:none;stroke:#000000;stroke-width:1;stroke-linecap:butt;stroke-linejoin:miter;stroke-miterlimit:8;stroke-dasharray:none;stroke-opacity:1"
       id="path68" />
    <text
       xml:space="preserve"
       transform="matrix(1,0,0,-1,403.1031,194.8929)"
       style="font-variant:normal;font-weight:normal;font-stretch:normal;font-size:12px;font-family:'Times New Roman';-inkscape-font-specification:TimesNewRomanPSMT;writing-mode:lr-tb;fill:#000000;fill-opacity:1;fill-rule:nonzero;stroke:none"
       id="text72"><tspan
         x="0 6.7199998 12.72 18.360001 23.040001 26.4 31.68 36.959999 40.32 43.799999 49.799999 55.799999 61.799999 67.080002 70.080002 78.720001 82.080002 85.440002 91.440002 94.440002 105.12 110.4 114.36 123 129 132.96001 142.08 147.36 153.36 162.72 168.72 174.72 180.72 186 192 195.36 199.32001 204"
         y="0"
         id="tspan70">Physical node with MerKurycomponent(s)</tspan></text>
    <path
       d="M 360.6,398.76 H 474 V 369.48 H 360.6 Z"
       style="fill:#f2f2f2;fill-opacity:1;fill-rule:evenodd;stroke:#000000;stroke-width:1;stroke-linecap:butt;stroke-linejoin:miter;stroke-miterlimit:8;stroke-dasharray:none;stroke-opacity:1"
       id="path74" />
    <text
       xml:space="preserve"
       transform="matrix(1,0,0,-1,369.7077,378.2302)"
       style="font-variant:normal;font-weight:normal;font-stretch:normal;font-size:15.96px;font-family:'Times New Roman';-inkscape-font-specification:TimesNewRomanPSMT;writing-mode:lr-tb;fill:#000000;fill-opacity:1;fill-rule:nonzero;stroke:none"
       id="text78"><tspan
         x="0 14.159712 21.245953 27.486313 31.923191 39.009434 44.289001 48.609371 60.132492 68.173141 76.212189 83.298431 87.256516"
         y="0"
         id="tspan76">Master Node 1</tspan></text>
    <path
       d="M 360.6,358.56 H 474 V 330.84 H 360.6 Z"
       style="fill:#f2f2f2;fill-opacity:1;fill-rule:evenodd;stroke:#000000;stroke-width:1;stroke-linecap:butt;stroke-linejoin:miter;stroke-miterlimit:8;stroke-dasharray:none;stroke-opacity:1"
       id="path80" />
    <text
       xml:space="preserve"
       transform="matrix(1,0,0,-1,369.7077,338.8511)"
       style="font-variant:normal;font-weight:normal;font-stretch:normal;font-size:15.96px;font-family:'Times New Roman';-inkscape-font-specification:TimesNewRomanPSMT;writing-mode:lr-tb;fill:#000000;fill-opacity:1;fill-rule:nonzero;stroke:none"
       id="text84"><tspan
         x="0 14.159712 21.245953 27.486313 31.923191 39.009434 44.289001 48.609371 60.132492 68.173141 76.212189 83.298431 87.256516"
         y="0"
         id="tspan82">Master Node 2</tspan></text>
    <path
       d="m 488.52,398.76 h 113.4 v -29.52 h -113.4 z"
       style="fill:#f2f2f2;fill-opacity:1;fill-rule:evenodd;stroke:none"
       id="path86" />
    <path
       d="m 488.52,398.76 h 113.4 v -29.52 h -113.4 z"
       style="fill:none;stroke:#000000;stroke-width:1;stroke-linecap:butt;stroke-linejoin:miter;stroke-miterlimit:8;stroke-dasharray:none;stroke-opacity:1"
       id="path88" />
    <text
       xml:space="preserve"
       transform="matrix(1,0,0,-1,497.5714,378.1304)"
       style="font-variant:normal;font-weight:normal;font-stretch:normal;font-size:15.96px;font-family:'Times New Roman';-inkscape-font-specification:TimesNewRomanPSMT;writing-mode:lr-tb;fill:#000000;fill-opacity:1;fill-rule:nonzero;stroke:none"
       id="text92"><tspan
         x="0 14.159712 21.245953 27.486313 31.923191 39.009434 44.289001 48.609371 60.132492 68.173141 76.212189 83.298431 87.256516"
         y="0"
         id="tspan90">Master Node 3</tspan></text>
    <path
       d="m 488.52,358.56 h 113.4 v -27.72 h -113.4 z"
       style="fill:#f2f2f2;fill-opacity:1;fill-rule:evenodd;stroke:none"
       id="path94" />
    <path
       d="m 488.52,358.56 h 113.4 v -27.72 h -113.4 z"
       style="fill:none;stroke:#000000;stroke-width:1;stroke-linecap:butt;stroke-linejoin:miter;stroke-miterlimit:8;stroke-dasharray:none;stroke-opacity:1"
       id="path96" />
    <text
       xml:space="preserve"
       transform="matrix(1,0,0,-1,511.1314,338.851)"
       style="font-variant:normal;font-weight:normal;font-stretch:normal;font-size:15.96px;font-family:'Times New Roman';-inkscape-font-specification:TimesNewRomanPSMT;writing-mode:lr-tb;fill:#000000;fill-opacity:1;fill-rule:nonzero;stroke:none"
       id="text100"><tspan
         x="0 9.7196398 14.15652 21.24276 29.283407 33.369167 44.892288 52.932938 60.973583"
         y="0"
         id="tspan98">Etcd Node</tspan></text>
    <path
       d="M 353.4,432.6 H 608.04 V 325.2 H 353.4 Z"
       style="fill:none;stroke:#000000;stroke-width:1;stroke-linecap:butt;stroke-linejoin:miter;stroke-miterlimit:8;stroke-dasharray:1, 1;stroke-dashoffset:0;stroke-opacity:1"
       id="path102" />
    <text
       xml:space="preserve"
       transform="matrix(1,0,0,-1,428.0467,409.4362)"
       style="font-variant:normal;font-weight:normal;font-stretch:normal;font-size:18px;font-family:'Times New Roman';-inkscape-font-specification:TimesNewRomanPSMT;writing-mode:lr-tb;fill:#000000;fill-opacity:1;fill-rule:nonzero;stroke:none"
       id="text106"><tspan
         x="0 12.006 21.006001 30.006001 35.046001 41.040001 50.040001 55.080002 59.526001 69.485397 74.525398 82.566002 91.566002"
         y="0"
         id="tspan104">Control Plane</tspan></text>
    <path
       d="m 204.12,398.76 h 130.2 v -67.92 h -130.2 z"
       style="fill:#f2f2f2;fill-opacity:1;fill-rule:evenodd;stroke:#000000;stroke-width:1;stroke-linecap:butt;stroke-linejoin:miter;stroke-miterlimit:8;stroke-dasharray:none;stroke-opacity:1"
       id="path108" />
    <text
       xml:space="preserve"
       transform="matrix(1,0,0,-1,211.9585,378.1242)"
       style="font-variant:normal;font-weight:normal;font-stretch:normal;font-size:15.96px;font-family:'Times New Roman';-inkscape-font-specification:TimesNewRomanPSMT;writing-mode:lr-tb;fill:#000000;fill-opacity:1;fill-rule:nonzero;stroke:none"
       id="text112"><tspan
         x="0 8.8737602 14.153328 22.193975 34.313999 41.400242 45.83712 53.876171 60.962414 69.003059 75.243423 79.807983 91.3311 99.37175 107.4108"
         y="0"
         id="tspan110">Prometheus Node</tspan></text>
    <g
       id="g114">
      <g
         id="g116"
         clip-path="url(#clipPath120)">
        <g
           id="g122"
           transform="matrix(0.1066303,0,0,-0.1035476,-1.53e-5,0)">
          <g
             id="g124"
             transform="translate(2320.9248,-3199.613)">
            <path
               d="m 0,0 v 22.5 h -4 v -55.9 h 14.4 c 6.6,0 11.5,1.4 14.8,4.3 3.3,2.9 5,7 5,12.3 0,2.4 -0.5,4.7 -1.4,6.8 -0.9,2.1 -2.2,3.8 -3.9,5.3 -1.7,1.5 -3.8,2.6 -6.2,3.5 C 16.3,-0.4 13.5,0 10.4,0 Z m 0,-3.2 h 10.4 c 2.5,0 4.7,-0.3 6.6,-1 1.9,-0.7 3.6,-1.6 5,-2.8 1.4,-1.2 2.4,-2.6 3.1,-4.3 0.7,-1.6 1.1,-3.4 1.1,-5.4 0,-4.3 -1.3,-7.6 -4,-9.9 -2.6,-2.3 -6.6,-3.5 -11.8,-3.5 H 0 Z m 43.6,25.8 v -39.3 h 2 c 0.4,0 0.8,0.1 1,0.3 0.2,0.2 0.3,0.5 0.3,0.9 l 0.3,8.3 c 1.3,-3.2 2.9,-5.7 5.1,-7.5 2.1,-1.8 4.7,-2.7 7.8,-2.7 1.2,0 2.3,0.1 3.3,0.4 1,0.3 1.9,0.6 2.8,1.1 l -0.5,2.6 c -0.1,0.4 -0.3,0.6 -0.8,0.6 -0.2,0 -0.4,-0.1 -0.7,-0.2 -0.3,-0.1 -0.7,-0.2 -1.1,-0.4 -0.4,-0.1 -1,-0.2 -1.6,-0.4 -0.6,-0.1 -1.4,-0.2 -2.2,-0.2 -3,0 -5.4,0.9 -7.3,2.8 -1.9,1.8 -3.5,4.5 -4.6,8 v 25.6 z m 50.5,-40 c 2.8,0 5.3,0.5 7.6,1.4 2.2,1 4.1,2.3 5.6,4.1 1.5,1.8 2.7,3.9 3.5,6.4 0.8,2.5 1.2,5.3 1.2,8.4 0,3.1 -0.4,5.9 -1.2,8.3 -0.8,2.5 -2,4.6 -3.5,6.4 -1.5,1.8 -3.4,3.1 -5.6,4.1 -2.2,0.9 -4.7,1.4 -7.6,1.4 -2.8,0 -5.3,-0.5 -7.6,-1.4 -2.2,-0.9 -4.1,-2.3 -5.6,-4.1 -1.5,-1.8 -2.7,-3.9 -3.5,-6.4 -0.8,-2.5 -1.2,-5.3 -1.2,-8.3 0,-3.1 0.4,-5.9 1.2,-8.4 0.8,-2.5 2,-4.6 3.5,-6.4 1.5,-1.8 3.4,-3.1 5.6,-4.1 2.2,-0.9 4.8,-1.4 7.6,-1.4 m 0,37.5 c 2.3,0 4.4,-0.4 6.1,-1.2 1.8,-0.8 3.2,-2 4.4,-3.5 1.2,-1.5 2,-3.3 2.6,-5.4 0.6,-2.1 0.9,-4.5 0.9,-7.1 0,-2.6 -0.3,-5 -0.9,-7.1 -0.6,-2.1 -1.5,-4 -2.6,-5.5 -1.2,-1.5 -2.6,-2.7 -4.4,-3.5 -1.8,-0.8 -3.8,-1.2 -6.1,-1.2 -2.3,0 -4.4,0.4 -6.1,1.2 -1.8,0.8 -3.2,2 -4.4,3.5 -1.2,1.5 -2.1,3.3 -2.6,5.5 -0.6,2.1 -0.9,4.5 -0.9,7.1 0,2.6 0.3,5 0.9,7.1 0.6,2.1 1.5,3.9 2.6,5.4 1.2,1.5 2.6,2.7 4.4,3.5 1.7,0.8 3.7,1.2 6.1,1.2 m 30.9,2.5 v -39.3 h 2.1 c 0.7,0 1.1,0.3 1.2,1 l 0.4,5.7 c 0.8,-1.1 1.6,-2.1 2.5,-3 0.9,-0.9 1.8,-1.7 2.8,-2.3 1,-0.6 2,-1.1 3.2,-1.5 1.1,-0.4 2.3,-0.5 3.5,-0.5 2.9,0 5.2,0.8 6.9,2.5 1.7,1.7 2.9,4 3.5,7 0.5,-1.6 1.1,-3 2,-4.2 0.9,-1.2 1.8,-2.2 2.9,-2.9 1.1,-0.8 2.3,-1.4 3.6,-1.7 1.3,-0.3 2.6,-0.6 4,-0.6 1.9,0 3.7,0.3 5.2,1 1.6,0.6 2.9,1.6 4,2.9 1.1,1.3 1.9,2.8 2.5,4.7 0.6,1.8 0.9,3.9 0.9,6.3 v 25.1 h -3.8 V -2.3 c 0,-3.8 -0.8,-6.8 -2.5,-8.8 -1.7,-2 -4,-3 -7.1,-3 -1.4,0 -2.7,0.2 -3.9,0.8 -1.2,0.6 -2.4,1.2 -3.3,2.2 -1,1 -1.7,2.2 -2.3,3.7 -0.6,1.5 -0.8,3.2 -0.8,5.1 v 25.1 h -3.8 V -2.3 c 0,-3.8 -0.8,-6.7 -2.3,-8.8 -1.5,-2 -3.8,-3 -6.7,-3 -2.1,0 -4.1,0.6 -5.9,1.9 -1.8,1.3 -3.4,3 -4.9,5.3 v 29.7 z m 80.8,-40 c 2.2,0 4.3,0.4 6.1,1.1 1.9,0.8 3.5,1.9 4.9,3.3 1.4,1.5 2.5,3.3 3.2,5.4 0.8,2.1 1.2,4.6 1.2,7.3 0,0.6 -0.1,1 -0.3,1.2 -0.2,0.2 -0.4,0.3 -0.8,0.3 h -28.4 v 0.7 c 0,2.9 0.3,5.5 1,7.8 0.7,2.2 1.7,4.1 2.9,5.6 1.3,1.5 2.8,2.7 4.6,3.4 1.8,0.8 3.8,1.1 6,1.1 2,0 3.7,-0.2 5.1,-0.7 1.4,-0.4 2.7,-0.9 3.6,-1.5 1,-0.5 1.8,-1 2.4,-1.5 0.6,-0.4 1,-0.7 1.3,-0.7 0.3,0 0.6,0.1 0.8,0.4 l 1,1.3 c -0.6,0.8 -1.5,1.5 -2.5,2.2 -1,0.7 -2.2,1.3 -3.5,1.8 -1.3,0.5 -2.6,0.9 -4.1,1.2 -1.5,0.3 -2.9,0.4 -4.4,0.4 -2.7,0 -5.1,-0.5 -7.3,-1.4 -2.2,-0.9 -4.1,-2.3 -5.7,-4.1 -1.6,-1.8 -2.8,-4 -3.7,-6.6 -0.9,-2.6 -1.3,-5.6 -1.3,-8.9 0,-2.8 0.4,-5.4 1.2,-7.8 0.8,-2.4 2,-4.4 3.5,-6.2 1.5,-1.7 3.4,-3.1 5.6,-4 2.3,-0.6 4.8,-1.1 7.6,-1.1 m 0,2.8 c -2,0 -3.8,0.3 -5.4,0.9 -1.6,0.6 -3,1.5 -4.2,2.7 -1.2,1.2 -2.1,2.6 -2.8,4.3 -0.7,1.7 -1.2,3.5 -1.4,5.6 h 25.9 c 0,-2.1 -0.3,-4 -0.9,-5.7 -0.6,-1.7 -1.4,-3.1 -2.4,-4.2 -1,-1.1 -2.3,-2 -3.8,-2.7 -1.5,-0.6 -3.2,-0.9 -5,-0.9 m 37.7,37.8 c -2.7,0 -4.7,-0.7 -6.2,-2.2 -1.5,-1.5 -2.2,-3.8 -2.2,-6.8 v -26.9 h -5.6 c -0.3,0 -0.5,-0.1 -0.7,-0.2 -0.2,-0.2 -0.3,-0.4 -0.3,-0.7 v -1.5 l 6.7,-0.5 0.9,-14.1 c 0,-0.2 0.1,-0.4 0.3,-0.6 0.2,-0.2 0.4,-0.3 0.7,-0.3 h 1.8 v 15 h 12.4 v 2.8 h -12.4 v 26.7 c 0,1.1 0.1,2 0.4,2.8 0.3,0.8 0.7,1.4 1.1,1.9 0.4,0.5 1.1,0.9 1.7,1.1 0.7,0.2 1.4,0.4 2.1,0.4 0.9,0 1.8,-0.1 2.5,-0.4 0.7,-0.3 1.3,-0.6 1.8,-0.9 0.5,-0.3 0.9,-0.6 1.2,-0.9 0.3,-0.3 0.6,-0.4 0.8,-0.4 0.2,0 0.4,0.1 0.6,0.4 l 1,1.7 c -1,1.1 -2.3,2 -3.8,2.7 -1.5,0.5 -3.1,0.9 -4.8,0.9 m 20.7,-0.6 V -34.9 H 268 V -10 c 1.8,-2.2 3.9,-4 6.2,-5.4 2.3,-1.3 4.9,-2 7.8,-2 2.2,0 4.1,0.3 5.7,1 1.6,0.7 3,1.7 4.1,3 1.1,1.3 1.9,2.8 2.4,4.7 0.6,1.8 0.8,3.9 0.8,6.2 v 25.1 h -3.8 V -2.5 c 0,-3.7 -0.8,-6.6 -2.5,-8.7 -1.7,-2.1 -4.3,-3.1 -7.7,-3.1 -2.6,0 -5,0.7 -7.2,2 -2.2,1.3 -4.2,3.2 -5.9,5.5 v 29.5 h -3.7 z m 60.7,-40 c 2.2,0 4.3,0.4 6.1,1.1 1.9,0.8 3.5,1.9 4.9,3.3 1.4,1.5 2.5,3.3 3.2,5.4 0.8,2.1 1.2,4.6 1.2,7.3 0,0.6 -0.1,1 -0.3,1.2 -0.2,0.2 -0.4,0.3 -0.8,0.3 h -28.3 v 0.7 c 0,2.9 0.3,5.5 1,7.8 0.7,2.2 1.7,4.1 2.9,5.6 1.3,1.5 2.8,2.7 4.6,3.4 1.8,0.8 3.8,1.1 6,1.1 2,0 3.7,-0.2 5.1,-0.7 1.4,-0.4 2.7,-0.9 3.6,-1.5 1,-0.5 1.8,-1 2.4,-1.5 0.6,-0.4 1,-0.7 1.3,-0.7 0.3,0 0.6,0.1 0.8,0.4 l 1,1.3 c -0.6,0.8 -1.5,1.5 -2.5,2.2 -1,0.7 -2.2,1.3 -3.5,1.8 -1.3,0.5 -2.6,0.9 -4.1,1.2 -1.5,0.3 -2.9,0.4 -4.4,0.4 -2.7,0 -5.1,-0.5 -7.3,-1.4 -2.2,-0.9 -4.1,-2.3 -5.7,-4.1 -1.6,-1.8 -2.8,-4 -3.7,-6.6 -0.9,-2.6 -1.3,-5.6 -1.3,-8.9 0,-2.8 0.4,-5.4 1.2,-7.8 0.8,-2.4 2,-4.4 3.5,-6.2 1.5,-1.7 3.4,-3.1 5.6,-4 2.2,-0.6 4.7,-1.1 7.5,-1.1 m 0,2.8 c -2,0 -3.8,0.3 -5.4,0.9 -1.6,0.6 -3,1.5 -4.2,2.7 -1.2,1.2 -2.1,2.6 -2.8,4.3 -0.7,1.7 -1.2,3.5 -1.4,5.6 h 25.8 c 0,-2.1 -0.3,-4 -0.9,-5.7 -0.6,-1.7 -1.4,-3.1 -2.4,-4.2 -1,-1.1 -2.3,-2 -3.8,-2.7 -1.5,-0.6 -3.1,-0.9 -4.9,-0.9 m 29.9,-2.1 V 8.4 c 0,3.7 0.8,6.6 2.5,8.7 1.7,2.1 4.3,3.1 7.7,3.1 2.6,0 5,-0.7 7.2,-2 2.2,-1.3 4.2,-3.1 6,-5.4 v -29.5 h 3.8 v 39.3 h -2.1 c -0.7,0 -1.1,-0.3 -1.1,-1 l -0.4,-5.8 c -1.8,2.3 -3.9,4.1 -6.3,5.5 -2.4,1.4 -5,2.1 -8,2.1 -2.2,0 -4.1,-0.3 -5.7,-1 -1.6,-0.7 -3,-1.7 -4.1,-3 -1.1,-1.3 -1.9,-2.8 -2.5,-4.7 -0.6,-1.8 -0.8,-3.9 -0.8,-6.2 v -25.1 z m 63.1,4.9 c -0.2,0.4 -0.5,0.6 -0.9,0.6 -0.3,0 -0.7,-0.2 -1.1,-0.5 -0.5,-0.3 -1.1,-0.7 -1.8,-1.1 -0.7,-0.4 -1.7,-0.8 -2.8,-1.1 -1.1,-0.3 -2.4,-0.5 -4,-0.5 -1.4,0 -2.7,0.2 -3.9,0.6 -1.2,0.4 -2.2,1 -3,1.6 -0.8,0.7 -1.5,1.5 -1.9,2.4 -0.5,0.9 -0.7,1.9 -0.7,2.9 0,1.2 0.3,2.3 0.9,3.1 0.6,0.8 1.5,1.5 2.5,2.1 1,0.6 2.2,1.1 3.5,1.5 1.3,0.4 2.6,0.8 4,1.3 1.4,0.4 2.7,0.9 4,1.4 1.3,0.5 2.5,1.2 3.5,1.9 1,0.8 1.9,1.7 2.5,2.8 0.6,1.1 0.9,2.5 0.9,4 0,1.7 -0.3,3.3 -0.9,4.8 -0.6,1.5 -1.5,2.8 -2.7,3.8 -1.2,1 -2.6,1.9 -4.3,2.6 -1.7,0.7 -3.7,0.9 -5.8,0.9 -2.8,0 -5.1,-0.4 -7.1,-1.3 -2,-0.9 -3.8,-2 -5.4,-3.5 l 0.9,-1.3 c 0.1,-0.2 0.3,-0.4 0.4,-0.5 0.2,-0.1 0.4,-0.2 0.7,-0.2 0.3,0 0.8,0.2 1.3,0.6 0.5,0.4 1.1,0.9 2,1.4 0.8,0.5 1.8,0.9 3,1.4 1.2,0.4 2.7,0.6 4.4,0.6 1.7,0 3.1,-0.2 4.4,-0.7 1.3,-0.5 2.3,-1.1 3.2,-1.9 0.8,-0.8 1.5,-1.7 1.9,-2.8 0.4,-1.1 0.7,-2.2 0.7,-3.4 0,-1.3 -0.3,-2.4 -0.9,-3.3 -0.6,-0.9 -1.5,-1.6 -2.5,-2.2 -1,-0.6 -2.2,-1.1 -3.5,-1.5 -1.3,-0.4 -2.6,-0.8 -4,-1.3 -1.4,-0.4 -2.7,-0.9 -4,-1.4 -1.3,-0.5 -2.5,-1.1 -3.5,-1.9 -1,-0.8 -1.9,-1.7 -2.5,-2.8 -0.6,-1.1 -0.9,-2.5 -0.9,-4.1 0,-1.4 0.3,-2.7 0.9,-4 0.6,-1.3 1.5,-2.4 2.6,-3.4 1.1,-1 2.5,-1.8 4.1,-2.3 1.6,-0.6 3.4,-0.9 5.4,-0.9 2.4,0 4.5,0.3 6.4,1 1.9,0.7 3.6,1.8 5.1,3.2 z"
               style="fill:#9c9c9d;fill-opacity:1;fill-rule:nonzero;stroke:none"
               id="path126" />
          </g>
        </g>
        <g
           id="g128"
           transform="matrix(0.1066303,0,0,-0.1035476,0,3.05e-5)">
          <g
             id="g130"
             transform="translate(2529.0247,-3540.9128)">
            <path
               d="M 0,0 C 74.4,0 135.4,60.3 135.3,133.6 135.2,208.1 74.4,267.5 -1.6,267.5 -75.8,267.4 -135.9,207.1 -135.9,132.6 -135.8,59.7 -74.6,0 0,0 m -41.1,46.9 c 1.7,8.3 0,16.1 -2.5,23.8 -1.7,5.3 -4.2,10.4 -5.6,15.8 -2.4,8.9 -5.1,17.8 -6.1,26.8 -1.4,13 3.7,24.5 12.5,35.9 -14.3,-3 -27.3,-5.7 -40.5,-8.5 0.1,1.3 0,1.8 0.1,2.2 3.8,11.2 10.6,20.6 18.2,29.6 0.8,0.9 2.6,1.4 4,1.4 40.4,0.1 80.7,0.1 121.1,0 1.3,0 2.9,-0.2 3.7,-1 8.7,-9 15.3,-19.3 19.4,-32.3 -14.8,2.9 -28.9,5.6 -42.9,8.3 2.8,-5.5 6.1,-10.4 7.9,-15.7 C 54.5,115 51.9,97.4 42.8,80.8 35.5,67.5 28.7,54.2 32.4,38.2 24.7,45.8 21.7,55.4 19.8,65.4 17.9,75.2 16.9,85.1 15.4,95.1 15.2,94.8 14.9,94.6 14.9,94.3 14.7,93.3 14.6,92.2 14.5,91.2 13.6,74.9 10.4,59.2 3.7,44.3 -0.3,35.5 -4.7,26.5 -0.6,16 c -2.8,1.5 -5.3,2.9 -7.1,5 -5.4,6.2 -7.6,13.5 -8.1,21.6 -0.5,6.9 -1.2,13.9 -2.4,20.7 -1.4,7.1 -3.5,14.1 -8.3,20.7 -1.8,-14.3 -2,-28.2 -14.6,-37.1 M 63,186.2 H -63.6 v 21.9 H 63 Z m -101.5,33.1 c -0.1,18.2 18.6,31.8 41.6,30.8 19.1,-0.8 36,-15.8 34.6,-30.8 z"
               style="fill:#e75225;fill-opacity:1;fill-rule:nonzero;stroke:none"
               id="path132" />
          </g>
        </g>
      </g>
    </g>
    <path
       d="M 628.2,398.76 H 741.6 V 369.24 H 628.2 Z"
       style="fill:#f2f2f2;fill-opacity:1;fill-rule:evenodd;stroke:#000000;stroke-width:1;stroke-linecap:butt;stroke-linejoin:miter;stroke-miterlimit:8;stroke-dasharray:none;stroke-opacity:1"
       id="path134" />
    <text
       xml:space="preserve"
       transform="matrix(1,0,0,-1,641.7505,378.1304)"
       style="font-variant:normal;font-weight:normal;font-stretch:normal;font-size:15.96px;font-family:'Times New Roman';-inkscape-font-specification:TimesNewRomanPSMT;writing-mode:lr-tb;fill:#000000;fill-opacity:1;fill-rule:nonzero;stroke:none"
       id="text138"><tspan
         x="0 13.679316 21.723156 27.002724 35.046562 42.126419 47.405987 51.731148 63.251076 71.294914 79.338753"
         y="0"
         id="tspan136">Worker Node</tspan></text>
    <path
       d="M 628.2,360.36 H 741.6 V 330.84 H 628.2 Z"
       style="fill:#f2f2f2;fill-opacity:1;fill-rule:evenodd;stroke:none"
       id="path140" />
    <path
       d="M 628.2,360.36 H 741.6 V 330.84 H 628.2 Z"
       style="fill:none;stroke:#000000;stroke-width:1;stroke-linecap:butt;stroke-linejoin:miter;stroke-miterlimit:8;stroke-dasharray:none;stroke-opacity:1"
       id="path142" />
    <text
       xml:space="preserve"
       transform="matrix(1,0,0,-1,640.7931,339.7178)"
       style="font-variant:normal;font-weight:normal;font-stretch:normal;font-size:15.96px;font-family:'Times New Roman';-inkscape-font-specification:TimesNewRomanPSMT;writing-mode:lr-tb;fill:#000000;fill-opacity:1;fill-rule:nonzero;stroke:none"
       id="text146"><tspan
         x="0 11.52312 26.523924 38.047043 49.570164 53.655926 65.179047 73.219688 81.258743"
         y="0"
         id="tspan144">KWOK Node</tspan></text>
    <path
       d="M 619.44,432.6 H 749.76 V 325.2 H 619.44 Z"
       style="fill:none;stroke:#000000;stroke-width:1;stroke-linecap:butt;stroke-linejoin:miter;stroke-miterlimit:8;stroke-dasharray:1, 1;stroke-dashoffset:0;stroke-opacity:1"
       id="path148" />
    <text
       xml:space="preserve"
       transform="matrix(1,0,0,-1,645.366,409.6957)"
       style="font-variant:normal;font-weight:normal;font-stretch:normal;font-size:18px;font-family:'Times New Roman';-inkscape-font-specification:TimesNewRomanPSMT;writing-mode:lr-tb;fill:#000000;fill-opacity:1;fill-rule:nonzero;stroke:none"
       id="text152"><tspan
         x="0 12.96 21.006001 26.046 34.091999 38.537998 48.497398 53.537399 61.583401 70.583397"
         y="0"
         id="tspan150">Data Plane</tspan></text>
    <path
       d="M 353.4,318 H 501.72 V 229.68 H 353.4 Z"
       style="fill:#fff2cc;fill-opacity:0.501968;fill-rule:evenodd;stroke:none"
       id="path154" />
    <path
       d="M 353.4,318 H 501.72 V 229.68 H 353.4 Z"
       style="fill:none;stroke:#000000;stroke-width:1;stroke-linecap:butt;stroke-linejoin:miter;stroke-miterlimit:8;stroke-dasharray:none;stroke-opacity:1"
       id="path156" />
    <g
       id="g158">
      <g
         id="g160"
         clip-path="url(#clipPath164)">
        <g
           id="g166"
           transform="translate(361.92,262.9399)">
          <path
             d="m 0,0 c 0,2.706 2.194,4.9 4.9,4.9 h 122.32 c 2.706,0 4.9,-2.194 4.9,-4.9 v -19.6 c 0,-2.706 -2.194,-4.9 -4.9,-4.9 H 4.9 c -2.706,0 -4.9,2.194 -4.9,4.9 z"
             style="fill:#ffd966;fill-opacity:1;fill-rule:evenodd;stroke:none"
             id="path168" />
        </g>
        <g
           id="g170"
           transform="translate(361.92,262.9399)">
          <path
             d="m 0,0 c 0,2.706 2.194,4.9 4.9,4.9 h 122.32 c 2.706,0 4.9,-2.194 4.9,-4.9 v -19.6 c 0,-2.706 -2.194,-4.9 -4.9,-4.9 H 4.9 c -2.706,0 -4.9,2.194 -4.9,4.9 z"
             style="fill:none;stroke:#000000;stroke-width:1;stroke-linecap:butt;stroke-linejoin:miter;stroke-miterlimit:8;stroke-dasharray:none;stroke-opacity:1"
             id="path172" />
        </g>
      </g>
    </g>
    <text
       xml:space="preserve"
       transform="matrix(1,0,0,-1,372.7094,247.2337)"
       style="font-variant:normal;font-weight:normal;font-stretch:normal;font-size:15.96px;font-family:'Times New Roman';-inkscape-font-specification:TimesNewRomanPSMT;writing-mode:lr-tb;fill:#000000;fill-opacity:1;fill-rule:nonzero;stroke:none"
       id="text176"><tspan
         x="0 10.680432 17.766672 25.805723 33.846371 40.932613 47.172974 51.609852 55.328533 69.727646 75.008804 82.095047 90.134102 98.174751 105.26099"
         y="0"
         id="tspan174">Request Wrapper</tspan></text>
    <text
       xml:space="preserve"
       transform="matrix(1,0,0,-1,374.9077,296.0136)"
       style="font-variant:normal;font-weight:normal;font-stretch:normal;font-size:18px;font-family:'Times New Roman';-inkscape-font-specification:TimesNewRomanPSMT;writing-mode:lr-tb;fill:#000000;fill-opacity:1;fill-rule:nonzero;stroke:none"
       id="text182"><tspan
         x="0 11.0394 20.0394 28.0854 37.0854 41.531399 53.532001 61.577999 66.617996 74.664001 83.664001 91.709999 99.755997 105.7554"
         y="0"
         id="tspan178">Load Balancer </tspan><tspan
         x="33.354 46.313999 55.313999 64.314003"
         y="21.6"
         id="tspan180">Node</tspan></text>
    <path
       d="M 508.08,318 H 750 V 229.68 H 508.08 Z"
       style="fill:#fff2cc;fill-opacity:0.501968;fill-rule:evenodd;stroke:none"
       id="path184" />
    <path
       d="M 508.08,318 H 750 V 229.68 H 508.08 Z"
       style="fill:none;stroke:#000000;stroke-width:1;stroke-linecap:butt;stroke-linejoin:miter;stroke-miterlimit:8;stroke-dasharray:none;stroke-opacity:1"
       id="path186" />
    <g
       id="g188">
      <g
         id="g190"
         clip-path="url(#clipPath194)">
        <g
           id="g196"
           transform="translate(628.2,262.9399)">
          <path
             d="m 0,0 c 0,2.706 2.194,4.9 4.9,4.9 h 103.6 c 2.706,0 4.9,-2.194 4.9,-4.9 v -19.6 c 0,-2.706 -2.194,-4.9 -4.9,-4.9 H 4.9 c -2.706,0 -4.9,2.194 -4.9,4.9 z"
             style="fill:#ffd966;fill-opacity:1;fill-rule:evenodd;stroke:#000000;stroke-width:1;stroke-linecap:butt;stroke-linejoin:miter;stroke-miterlimit:8;stroke-dasharray:none;stroke-opacity:1"
             id="path198" />
        </g>
      </g>
    </g>
    <text
       xml:space="preserve"
       transform="matrix(1,0,0,-1,642.5858,247.2337)"
       style="font-variant:normal;font-weight:normal;font-stretch:normal;font-size:15.96px;font-family:'Times New Roman';-inkscape-font-specification:TimesNewRomanPSMT;writing-mode:lr-tb;fill:#000000;fill-opacity:1;fill-rule:nonzero;stroke:none"
       id="text202"><tspan
         x="0 9.7196398 17.760288 24.846527 32.887177 36.845257 45.719017 52.805256 57.242134 64.328377 72.367432 79.453667"
         y="0"
         id="tspan200">Load Fetcher</tspan></text>
    <g
       id="g204">
      <g
         id="g206"
         clip-path="url(#clipPath210)">
        <g
           id="g212"
           transform="translate(628.2,300.4999)">
          <path
             d="m 0,0 c 0,2.706 2.194,4.9 4.9,4.9 h 103.6 c 2.706,0 4.9,-2.194 4.9,-4.9 v -19.6 c 0,-2.706 -2.194,-4.9 -4.9,-4.9 H 4.9 c -2.706,0 -4.9,2.194 -4.9,4.9 z"
             style="fill:#ffd966;fill-opacity:1;fill-rule:evenodd;stroke:#000000;stroke-width:1;stroke-linecap:butt;stroke-linejoin:miter;stroke-miterlimit:8;stroke-dasharray:none;stroke-opacity:1"
             id="path214" />
        </g>
      </g>
    </g>
    <text
       xml:space="preserve"
       transform="matrix(1,0,0,-1,638.5106,284.798)"
       style="font-variant:normal;font-weight:normal;font-stretch:normal;font-size:15.96px;font-family:'Times New Roman';-inkscape-font-specification:TimesNewRomanPSMT;writing-mode:lr-tb;fill:#000000;fill-opacity:1;fill-rule:nonzero;stroke:none"
       id="text218"><tspan
         x="0 10.680432 17.766672 24.852913 32.893559 45.133286 57.373009 64.459251 72.499893 80.538948 87.625191"
         y="0"
         id="tspan216">Recommender</tspan></text>
    <g
       id="g220">
      <g
         id="g222"
         clip-path="url(#clipPath226)">
        <g
           id="g228"
           transform="translate(514.8,262.9398)">
          <path
             d="m 0,0 c 0,2.706 2.194,4.9 4.9,4.9 h 97.36 c 2.706,0 4.9,-2.194 4.9,-4.9 v -19.6 c 0,-2.706 -2.194,-4.9 -4.9,-4.9 H 4.9 c -2.706,0 -4.9,2.194 -4.9,4.9 z"
             style="fill:#ffd966;fill-opacity:1;fill-rule:evenodd;stroke:#000000;stroke-width:1;stroke-linecap:butt;stroke-linejoin:miter;stroke-miterlimit:8;stroke-dasharray:none;stroke-opacity:1"
             id="path230" />
        </g>
      </g>
    </g>
    <text
       xml:space="preserve"
       transform="matrix(1,0,0,-1,542.5963,247.2337)"
       style="font-variant:normal;font-weight:normal;font-stretch:normal;font-size:15.96px;font-family:'Times New Roman';-inkscape-font-specification:TimesNewRomanPSMT;writing-mode:lr-tb;fill:#000000;fill-opacity:1;fill-rule:nonzero;stroke:none"
       id="text234"><tspan
         x="0 11.52312 19.563768 27.602819 34.68906 39.125938 46.212181"
         y="0"
         id="tspan232">Updater</tspan></text>
    <text
       xml:space="preserve"
       transform="matrix(1,0,0,-1,516.428,297.0396)"
       style="font-variant:normal;font-weight:normal;font-stretch:normal;font-size:18px;font-family:'Times New Roman';-inkscape-font-specification:TimesNewRomanPSMT;writing-mode:lr-tb;fill:#000000;fill-opacity:1;fill-rule:nonzero;stroke:none"
       id="text240"><tspan
         x="0 12.006 20.0448 28.0854 37.0854 51.004799 64.926003 72.964798 81.964798 90.964798 99.005402 104.9994"
         y="0"
         id="tspan236">Recommender </tspan><tspan
         x="32.993999 45.953999 54.953999 63.953999"
         y="21.6"
         id="tspan238">Node</tspan></text>
    <path
       d="m 204.12,297.36 h 130.2 v -41.88 h -130.2 z"
       style="fill:#f2f2f2;fill-opacity:1;fill-rule:evenodd;stroke:#000000;stroke-width:1;stroke-linecap:butt;stroke-linejoin:miter;stroke-miterlimit:8;stroke-dasharray:none;stroke-opacity:1"
       id="path242" />
    <text
       xml:space="preserve"
       transform="matrix(1,0,0,-1,215.5559,270.5051)"
       style="font-variant:normal;font-weight:normal;font-stretch:normal;font-size:15.96px;font-family:'Times New Roman';-inkscape-font-specification:TimesNewRomanPSMT;writing-mode:lr-tb;fill:#000000;fill-opacity:1;fill-rule:nonzero;stroke:none"
       id="text246"><tspan
         x="0 8.8737602 13.31064 18.590208 25.676449 31.916807 38.157169 42.11525 50.754395 57.840637 64.079399 68.516281 72.597252 84.120369 92.159424 100.20007"
         y="0"
         id="tspan244">Stress Test Node</tspan></text>
    <g
       id="g248"
       transform="translate(334.32,276.36)">
      <path
         d="M 0,0 H 8.627 V -23.271 H 22.541"
         style="fill:none;stroke:#c55a11;stroke-width:1;stroke-linecap:butt;stroke-linejoin:miter;stroke-miterlimit:8;stroke-dasharray:none;stroke-opacity:1"
         id="path250" />
    </g>
    <g
       id="g252"
       transform="translate(355.8609,256.0889)">
      <path
         d="M 0,0 6,-3 0,-6 Z"
         style="fill:#c55a11;fill-opacity:1;fill-rule:evenodd;stroke:none"
         id="path254" />
    </g>
    <g
       id="g256"
       transform="translate(427.5575,318.079)">
      <path
         d="m 0,0 v 3.604 h -84.158 v 57.277 h 5"
         style="fill:none;stroke:#c55a11;stroke-width:1;stroke-linecap:butt;stroke-linejoin:miter;stroke-miterlimit:8;stroke-dasharray:none;stroke-opacity:1"
         id="path258" />
    </g>
    <g
       id="g260"
       transform="translate(347.3997,375.9605)">
      <path
         d="M 0,0 6,2.999 0.001,6 Z"
         style="fill:#c55a11;fill-opacity:1;fill-rule:evenodd;stroke:none"
         id="path262" />
    </g>
    <g
       id="g264"
       transform="translate(749.7776,378.84)">
      <path
         d="m 0,0 h 16.286 v -158.493 h -338.024 v 13"
         style="fill:none;stroke:#c55a11;stroke-width:1;stroke-linecap:butt;stroke-linejoin:miter;stroke-miterlimit:8;stroke-dasharray:none;stroke-opacity:1"
         id="path266" />
    </g>
    <g
       id="g268"
       transform="translate(431.0394,232.3468)">
      <path
         d="M 0,0 -2.999,6 -6,0.001 Z"
         style="fill:#c55a11;fill-opacity:1;fill-rule:evenodd;stroke:none"
         id="path270" />
    </g>
    <g
       id="g272"
       transform="translate(480.7872,432.6)">
      <path
         d="M 0,0 V 5.429 H -211.507 V -28.863"
         style="fill:none;stroke:#2f5597;stroke-width:1;stroke-linecap:butt;stroke-linejoin:miter;stroke-miterlimit:8;stroke-dasharray:4, 3;stroke-dashoffset:0;stroke-opacity:1"
         id="path274" />
    </g>
    <g
       id="g276"
       transform="translate(272.2803,404.7365)">
      <path
         d="M 0,0 -3,-6 -6,0 Z"
         style="fill:#2f5597;fill-opacity:1;fill-rule:evenodd;stroke:none"
         id="path278" />
    </g>
    <g
       id="g280"
       transform="translate(204.12,364.8)">
      <path
         d="m 0,0 h -17.998 v -140.412 h 498.846 v 9"
         style="fill:none;stroke:#2f5597;stroke-width:1;stroke-linecap:butt;stroke-linejoin:miter;stroke-miterlimit:8;stroke-dasharray:4, 3;stroke-dashoffset:0;stroke-opacity:1"
         id="path282" />
    </g>
    <g
       id="g284"
       transform="translate(681.9689,232.3881)">
      <path
         d="M 0,0 2.999,6 6,0.001 Z"
         style="fill:#2f5597;fill-opacity:1;fill-rule:evenodd;stroke:none"
         id="path286" />
    </g>
    <text
       xml:space="preserve"
       transform="matrix(1,0,0,-1,274.9514,423.0799)"
       style="font-variant:normal;font-weight:normal;font-stretch:normal;font-size:12px;font-family:'Times New Roman';-inkscape-font-specification:TimesNewRomanPSMT;writing-mode:lr-tb;fill:#2f5597;fill-opacity:1;fill-rule:nonzero;stroke:none"
       id="text292"><tspan
         x="0 10.68 15.96 19.32 23.280001 26.639999 31.92"
         y="0"
         id="tspan288">Metrics</tspan><tspan
         x="-80.772003 -73.692001 -67.692001 -62.411999 -56.411999 -53.051998 -47.771999 -41.771999 -35.771999 -32.652 -21.972 -16.691999 -10.692 -4.6919999 -1.332 4.6680002 10.548 13.668 24.348 29.628 32.987999 36.948002 40.307999 45.588001"
         y="194.34"
         id="tspan290">Load and Mapping Metrics</tspan></text>
    <g
       id="g294"
       transform="translate(514.718,253.08)">
      <path
         d="M 0,0 H -15.678"
         style="fill:none;stroke:#c55a11;stroke-width:1;stroke-linecap:butt;stroke-linejoin:miter;stroke-miterlimit:8;stroke-dasharray:none;stroke-opacity:1"
         id="path296" />
    </g>
    <g
       id="g298"
       transform="translate(500.0399,256.0802)">
      <path
         d="M 0,0 -6,-3 0,-6 Z"
         style="fill:#c55a11;fill-opacity:1;fill-rule:evenodd;stroke:none"
         id="path300" />
    </g>
  </g>
</svg>
